<?xml version="1.0" encoding="utf-8"?>
<!-- Generator: Adobe Illustrator 16.0.0, SVG Export Plug-In . SVG Version: 6.00 Build 0)  -->
<!DOCTYPE svg PUBLIC "-//W3C//DTD SVG 1.1//EN" "http://www.w3.org/Graphics/SVG/1.1/DTD/svg11.dtd">
<svg version="1.1" id="Layer_1" xmlns="http://www.w3.org/2000/svg" xmlns:xlink="http://www.w3.org/1999/xlink" x="0px" y="0px"
	 width="40px" height="40px" viewBox="0 0 40 40" enable-background="new 0 0 40 40" xml:space="preserve">
<g>
	<g transform="matrix( 1, 0, 0, 1, 0,0) ">
		<g>
			<g id="Layer0_33_FILL">
				<path fill="#138F34" d="M20,0C14.5,0,9.783,1.95,5.85,5.85C1.95,9.75,0,14.467,0,20s1.95,10.233,5.85,14.1
					C9.783,38.033,14.5,40,20,40c5.533,0,10.25-1.967,14.15-5.9C38.051,30.233,40,25.533,40,20S38.051,9.75,34.15,5.85
					C30.25,1.95,25.533,0,20,0z"/>
			</g>
		</g>
	</g>
	<g transform="matrix( 1, 0, 0, 1, 0,0) ">
		<g>
			<g id="Layer0_33_MEMBER_0_FILL">
				<path fill="#FFFFFF" d="M9.2,22.3c-0.333,2.434-0.1,4.167,0.7,5.2c0.133,0.2,0.267,0.133,0.4-0.2
					c2.167-7.3,6.65-10.983,13.45-11.05c-3.267,1-6.1,2.566-8.5,4.7c-2.733,2.366-3.767,5.5-3.1,9.399
					c0.433,0.567,1.083,0.75,1.95,0.55C24,28.899,29.633,21.6,31,9c-0.6-0.067-1.033,0.083-1.301,0.45
					c-0.766,1.1-1.766,1.649-3,1.649C17.667,11.2,11.833,14.934,9.2,22.3z"/>
			</g>
		</g>
	</g>
</g>
</svg>
